<svg width="20" height="19" viewBox="0 0 20 19" fill="none" xmlns="http://www.w3.org/2000/svg">
<path d="M13.6585 1.61707C14.7231 1.62013 15.7431 2.02872 16.4958 2.75358C17.2486 3.47845 17.6729 4.4607 17.6761 5.48582V13.2225C17.6729 14.2476 17.2486 15.2298 16.4958 15.9547C15.7431 16.6796 14.7231 17.0882 13.6585 17.0912H5.6243C4.55976 17.0882 3.53973 16.6796 2.78698 15.9547C2.03423 15.2298 1.60994 14.2476 1.60676 13.2225V5.48582C1.60994 4.4607 2.03423 3.47845 2.78698 2.75358C3.53973 2.02872 4.55976 1.62013 5.6243 1.61707H13.6585ZM13.6585 0.0698242H5.6243C2.53087 0.0698242 0 2.50696 0 5.48582V13.2225C0 16.2013 2.53087 18.6385 5.6243 18.6385H13.6585C16.752 18.6385 19.2828 16.2013 19.2828 13.2225V5.48582C19.2828 2.50696 16.752 0.0698242 13.6585 0.0698242Z" fill="#274C5B"/>
<path d="M14.8638 5.48661C14.6254 5.48661 14.3924 5.41854 14.1942 5.29102C13.996 5.1635 13.8416 4.98225 13.7504 4.77019C13.6591 4.55813 13.6353 4.32478 13.6818 4.09966C13.7283 3.87454 13.8431 3.66775 14.0116 3.50544C14.1802 3.34314 14.3949 3.23261 14.6287 3.18783C14.8625 3.14305 15.1048 3.16603 15.325 3.25387C15.5452 3.34171 15.7334 3.49046 15.8659 3.68131C15.9983 3.87216 16.069 4.09653 16.069 4.32607C16.0693 4.47856 16.0384 4.62962 15.9779 4.77058C15.9175 4.91153 15.8287 5.03959 15.7167 5.14743C15.6048 5.25526 15.4718 5.34073 15.3254 5.39894C15.179 5.45714 15.0222 5.48694 14.8638 5.48661ZM9.64151 6.26003C10.2772 6.26003 10.8986 6.44154 11.4271 6.78161C11.9556 7.12169 12.3676 7.60505 12.6108 8.17057C12.8541 8.73609 12.9177 9.35837 12.7937 9.95873C12.6697 10.5591 12.3636 11.1105 11.9141 11.5434C11.4646 11.9762 10.892 12.271 10.2685 12.3904C9.64507 12.5098 8.99886 12.4485 8.41158 12.2143C7.82431 11.98 7.32236 11.5833 6.96921 11.0744C6.61606 10.5654 6.42756 9.96705 6.42756 9.35494C6.42847 8.53439 6.76738 7.74769 7.36991 7.16747C7.97245 6.58726 8.7894 6.2609 9.64151 6.26003ZM9.64151 4.71278C8.68806 4.71278 7.75603 4.98503 6.96327 5.49512C6.17051 6.00521 5.55263 6.73022 5.18776 7.57846C4.82289 8.4267 4.72742 9.36009 4.91343 10.2606C5.09944 11.1611 5.55857 11.9882 6.23275 12.6374C6.90694 13.2867 7.76591 13.7288 8.70104 13.9079C9.63616 14.087 10.6054 13.9951 11.4863 13.6437C12.3672 13.2924 13.1201 12.6974 13.6498 11.934C14.1795 11.1706 14.4622 10.2731 14.4622 9.35494C14.4622 8.12376 13.9543 6.94301 13.0503 6.07244C12.1462 5.20186 10.92 4.71278 9.64151 4.71278Z" fill="#274C5B"/>
</svg>
