
<svg width="20" height="20" viewBox="0 0 20 20" fill="none" xmlns="http://www.w3.org/2000/svg">
<path d="M9.79664 0.0698242C4.38662 0.0698242 0 4.45449 0 9.86209C0 13.8708 2.41417 17.3156 5.86486 18.8325C5.83862 18.1505 5.86049 17.3287 6.03543 16.5855C6.22349 15.7899 7.295 11.2479 7.295 11.2479C7.295 11.2479 6.9801 10.6227 6.9801 9.70034C6.9801 8.24899 7.81982 7.16485 8.86946 7.16485C9.76165 7.16485 10.1903 7.83369 10.1903 8.63369C10.1903 9.52985 9.61732 10.8675 9.3243 12.1091C9.07938 13.1495 9.84475 13.9932 10.8725 13.9932C12.7269 13.9932 13.9777 11.6107 13.9777 8.78669C13.9777 6.64026 12.5301 5.0359 9.9016 5.0359C6.932 5.0359 5.07763 7.25228 5.07763 9.72657C5.07763 10.579 5.3313 11.1823 5.72491 11.6457C5.90422 11.8599 5.93046 11.9473 5.86486 12.1921C5.81675 12.3714 5.71179 12.8041 5.66368 12.979C5.59808 13.2282 5.3969 13.3156 5.17385 13.2238C3.80494 12.6643 3.16641 11.1692 3.16641 9.48177C3.16641 6.70146 5.51498 3.36597 10.1684 3.36597C13.9077 3.36597 16.37 6.07196 16.37 8.97467C16.37 12.8173 14.2314 15.685 11.0824 15.685C10.0241 15.685 9.03128 15.1123 8.69014 14.4653C8.69014 14.4653 8.12159 16.721 7.99913 17.1582C7.79357 17.9145 7.38684 18.6664 7.01509 19.2565C7.91686 19.5225 8.85208 19.6579 9.79226 19.6587C15.2023 19.6587 19.5889 15.2741 19.5889 9.86646C19.5889 4.45886 15.2067 0.0698242 9.79664 0.0698242Z" fill="#274C5B"/>
</svg>