
<svg width="21" height="17" viewBox="0 0 21 17" fill="none" xmlns="http://www.w3.org/2000/svg">
<path d="M20.6602 2.02824C19.8852 2.36498 19.0652 2.58683 18.2261 2.68679C19.1079 2.17045 19.7711 1.35014 20.0912 0.379734C19.2575 0.867224 18.3469 1.20927 17.3984 1.39122C16.9991 0.972651 16.5187 0.639667 15.9866 0.412508C15.4546 0.18535 14.8818 0.0687622 14.3033 0.0698315C11.9609 0.0698315 10.0654 1.93785 10.0654 4.2406C10.0637 4.56091 10.1004 4.88026 10.1747 5.19183C8.49507 5.11309 6.85036 4.68462 5.34581 3.93382C3.84126 3.18303 2.50999 2.12645 1.43717 0.831675C1.0608 1.46617 0.861758 2.1901 0.86084 2.92782C0.86084 4.37403 1.61537 5.65238 2.75469 6.40131C2.07967 6.38529 1.41849 6.20663 0.827268 5.8805V5.93215C0.827268 7.95513 2.2907 9.63807 4.22759 10.0211C3.86336 10.1182 3.48803 10.1674 3.11108 10.1675C2.84361 10.168 2.57674 10.142 2.31437 10.09C2.85283 11.7471 4.41999 12.9523 6.27639 12.9867C4.76793 14.1493 2.91593 14.7776 1.01149 14.773C0.673443 14.7725 0.335713 14.7524 0 14.7127C1.9374 15.9498 4.18947 16.6042 6.48815 16.598C14.2943 16.598 18.5589 10.2407 18.5589 4.72698C18.5589 4.5462 18.5541 4.36542 18.5455 4.18895C19.3733 3.60016 20.0893 2.86847 20.6602 2.02824Z" fill="#274C5B"/>
</svg>
